<svg width="71" height="156" viewBox="0 0 71 156" fill="none" xmlns="http://www.w3.org/2000/svg">
<mask id="path-1-inside-1_227_9" fill="white">
<path d="M54.9251 35.3646C57.3067 35.3646 59.4985 35.828 61.5012 36.7553C67.4455 39.7704 70.9554 45.5007 71 51.8904V95.9049C69.885 102.902 61.9374 100.999 61.7449 95.9049V54.3448C61.0366 51.9748 56.4953 52.9575 56.3866 54.3448V149.737C55.2319 159.478 42.7413 156.618 42.4228 149.573V91.1599C41.6241 87.3922 36.3678 89.1042 36.2526 91.3236C36.4755 110.739 36.415 130.157 36.415 149.573C35.1693 159.264 22.7395 156.784 22.4511 149.737L22.2888 54.3448C21.5608 52.0259 17.3526 52.9153 17.2551 54.3448V95.9049C16.14 102.902 8.19248 100.999 8 95.9049V51.8904C8.11236 45.7731 10.3372 39.6448 15.6315 36.7553C17.3635 35.828 19.4743 35.3644 21.9639 35.3644L54.9251 35.3646V35.3646ZM54.7614 15.376C54.7614 23.868 47.9299 30.7522 39.5029 30.7522C31.076 30.7522 24.2445 23.868 24.2445 15.376C24.2444 6.88415 31.0759 0 39.5026 0C47.9299 0 54.7614 6.88415 54.7614 15.376V15.376Z"/>
</mask>
<path d="M54.9251 35.3646C57.3067 35.3646 59.4985 35.828 61.5012 36.7553C67.4455 39.7704 70.9554 45.5007 71 51.8904V95.9049C69.885 102.902 61.9374 100.999 61.7449 95.9049V54.3448C61.0366 51.9748 56.4953 52.9575 56.3866 54.3448V149.737C55.2319 159.478 42.7413 156.618 42.4228 149.573V91.1599C41.6241 87.3922 36.3678 89.1042 36.2526 91.3236C36.4755 110.739 36.415 130.157 36.415 149.573C35.1693 159.264 22.7395 156.784 22.4511 149.737L22.2888 54.3448C21.5608 52.0259 17.3526 52.9153 17.2551 54.3448V95.9049C16.14 102.902 8.19248 100.999 8 95.9049V51.8904C8.11236 45.7731 10.3372 39.6448 15.6315 36.7553C17.3635 35.828 19.4743 35.3644 21.9639 35.3644L54.9251 35.3646V35.3646ZM54.7614 15.376C54.7614 23.868 47.9299 30.7522 39.5029 30.7522C31.076 30.7522 24.2445 23.868 24.2445 15.376C24.2444 6.88415 31.0759 0 39.5026 0C47.9299 0 54.7614 6.88415 54.7614 15.376V15.376Z" fill="#4ECB71"/>
<path d="M61.5012 36.7553L61.9535 35.8635L61.9376 35.8554L61.9214 35.8478L61.5012 36.7553ZM71 51.8904H72L72 51.8834L71 51.8904ZM71 95.9049L71.9875 96.0623L72 95.9841V95.9049H71ZM61.7449 95.9049H60.7449V95.9238L60.7456 95.9427L61.7449 95.9049ZM61.7449 54.3448H62.7449V54.1986L62.703 54.0585L61.7449 54.3448ZM56.3866 54.3448L55.3897 54.2668L55.3866 54.3057V54.3448H56.3866ZM56.3866 149.737L57.3797 149.855L57.3866 149.796V149.737H56.3866ZM42.4228 149.573H41.4228V149.596L41.4238 149.618L42.4228 149.573ZM42.4228 91.1599H43.4228V91.0551L43.4011 90.9525L42.4228 91.1599ZM36.2526 91.3236L35.254 91.2717L35.2523 91.3034L35.2527 91.3351L36.2526 91.3236ZM36.415 149.573L37.4069 149.701L37.415 149.637V149.573H36.415ZM22.4511 149.737L21.4511 149.739L21.4511 149.758L21.4519 149.778L22.4511 149.737ZM22.2888 54.3448L23.2888 54.3431L23.2885 54.1907L23.2429 54.0453L22.2888 54.3448ZM17.2551 54.3448L16.2574 54.2767L16.2551 54.3107V54.3448H17.2551ZM17.2551 95.9049L18.2427 96.0623L18.2551 95.9841V95.9049H17.2551ZM8 95.9049H7V95.9238L7.00071 95.9427L8 95.9049ZM8 51.8904L7.00017 51.8721L7 51.8812V51.8904H8ZM15.6315 36.7553L15.1594 35.8737L15.1524 35.8775L15.6315 36.7553ZM21.9639 35.3644L21.964 34.3644H21.9639V35.3644ZM24.2445 15.376H25.2445V15.376L24.2445 15.376ZM54.9251 36.3646C57.1733 36.3646 59.2202 36.8012 61.081 37.6627L61.9214 35.8478C59.7768 34.8549 57.4401 34.3646 54.9251 34.3646V36.3646ZM61.0488 37.6471C66.664 40.4953 69.958 45.887 70 51.8974L72 51.8834C71.9527 45.1144 68.227 39.0455 61.9535 35.8635L61.0488 37.6471ZM70 51.8904V95.9049H72V51.8904H70ZM70.0125 95.7475C69.7643 97.3047 69.1577 98.2533 68.4848 98.7932C67.8096 99.3349 66.9779 99.5384 66.1364 99.4453C64.409 99.2542 62.8192 97.8526 62.7442 95.8671L60.7456 95.9427C60.8631 99.0516 63.3433 101.149 65.9166 101.433C67.2254 101.578 68.6018 101.263 69.7364 100.353C70.8732 99.4411 71.6782 98.0037 71.9875 96.0623L70.0125 95.7475ZM62.7449 95.9049V54.3448H60.7449V95.9049H62.7449ZM62.703 54.0585C62.4242 53.1254 61.7573 52.5385 61.0086 52.2267C60.2857 51.9257 59.4715 51.8683 58.7421 51.9407C58.01 52.0134 57.2748 52.2254 56.6859 52.5513C56.1626 52.8409 55.4581 53.3928 55.3897 54.2668L57.3836 54.4229C57.3695 54.6031 57.2734 54.512 57.6543 54.3012C57.9696 54.1267 58.4344 53.9811 58.9397 53.9309C59.4478 53.8805 59.9085 53.9351 60.2397 54.073C60.5451 54.2002 60.7115 54.3792 60.7867 54.6311L62.703 54.0585ZM55.3866 54.3448V149.737H57.3866V54.3448H55.3866ZM55.3936 149.619C55.1318 151.828 54.2487 153.206 53.1671 154.008C52.0698 154.821 50.6566 155.122 49.2047 154.956C46.2238 154.616 43.5522 152.413 43.4218 149.528L41.4238 149.618C41.6119 153.779 45.3449 156.528 48.9776 156.943C50.8325 157.155 52.7784 156.785 54.3578 155.615C55.9528 154.433 57.0641 152.516 57.3797 149.855L55.3936 149.619ZM43.4228 149.573V91.1599H41.4228V149.573H43.4228ZM43.4011 90.9525C43.1471 89.7543 42.506 88.8963 41.6208 88.4082C40.7673 87.9376 39.7907 87.8668 38.9194 88.0098C38.0463 88.1531 37.1933 88.5234 36.5315 89.0485C35.8841 89.5621 35.3031 90.3244 35.254 91.2717L37.2513 91.3754C37.2597 91.213 37.3789 90.9291 37.7745 90.6153C38.1556 90.3129 38.6882 90.0745 39.2434 89.9834C39.8004 89.892 40.2949 89.9609 40.6551 90.1596C40.9838 90.3408 41.2992 90.6817 41.4445 91.3673L43.4011 90.9525ZM35.2527 91.3351C35.4755 110.743 35.415 130.152 35.415 149.573H37.415C37.415 130.161 37.4755 110.735 37.2525 91.3121L35.2527 91.3351ZM35.4232 149.446C35.1408 151.643 34.245 153.046 33.1439 153.881C32.0288 154.727 30.607 155.063 29.1615 154.936C26.1962 154.676 23.5677 152.566 23.4502 149.696L21.4519 149.778C21.6229 153.955 25.3535 156.609 28.9867 156.928C30.8404 157.091 32.7777 156.669 34.3525 155.475C35.9414 154.27 37.0664 152.349 37.4069 149.701L35.4232 149.446ZM23.4511 149.735L23.2888 54.3431L21.2888 54.3465L21.4511 149.739L23.4511 149.735ZM23.2429 54.0453C22.6599 52.1882 20.748 51.8178 19.4397 51.9438C18.7401 52.0111 18.0363 52.2208 17.4713 52.5549C16.9483 52.8643 16.3155 53.4263 16.2574 54.2767L18.2528 54.4129C18.2435 54.5485 18.1733 54.4634 18.4895 54.2764C18.7637 54.1142 19.1758 53.9784 19.6313 53.9346C20.6336 53.8381 21.1897 54.1825 21.3347 54.6443L23.2429 54.0453ZM16.2551 54.3448V95.9049H18.2551V54.3448H16.2551ZM16.2676 95.7475C16.0194 97.3047 15.4128 98.2533 14.7398 98.7932C14.0646 99.3349 13.233 99.5384 12.3915 99.4453C10.6641 99.2542 9.0743 97.8526 8.99929 95.8671L7.00071 95.9427C7.11817 99.0516 9.59836 101.149 12.1716 101.433C13.4805 101.578 14.8568 101.263 15.9914 100.353C17.1283 99.4411 17.9333 98.0037 18.2427 96.0623L16.2676 95.7475ZM9 95.9049V51.8904H7V95.9049H9ZM8.99983 51.9088C9.10903 45.9641 11.2669 40.2766 16.1105 37.6331L15.1524 35.8775C9.40743 39.013 7.1157 45.5822 7.00017 51.8721L8.99983 51.9088ZM16.1034 37.6369C17.6566 36.8054 19.5959 36.3644 21.9639 36.3644V34.3644C19.3526 34.3644 17.0704 34.8506 15.1595 35.8737L16.1034 37.6369ZM21.9639 36.3644L54.9251 36.3646L54.9251 34.3646L21.964 34.3644L21.9639 36.3644ZM53.7614 15.376C53.7614 23.323 47.3704 29.7522 39.5029 29.7522V31.7522C48.4894 31.7522 55.7614 24.413 55.7614 15.376H53.7614ZM39.5029 29.7522C31.6355 29.7522 25.2445 23.323 25.2445 15.376H23.2445C23.2445 24.413 30.5165 31.7522 39.5029 31.7522V29.7522ZM25.2445 15.376C25.2444 7.42918 31.6354 1 39.5026 1V-1C30.5164 -1 23.2444 6.33913 23.2445 15.376L25.2445 15.376ZM39.5026 1C47.3704 1 53.7614 7.4292 53.7614 15.376H55.7614C55.7614 6.3391 48.4894 -1 39.5026 -1V1Z" fill="black" mask="url(#path-1-inside-1_227_9)"/>
<path d="M3.4 85.009C3.29391 85.009 3.19217 85.0516 3.11716 85.1272C3.04214 85.2029 3 85.3056 3 85.4126V87.0269H5V85.009H3.4ZM4.5 86.5225H3.5V85.5135H4.5V86.5225Z" fill="black"/>
<path d="M3 91.6683C3 91.7753 3.04214 91.878 3.11716 91.9536C3.19217 92.0293 3.29391 92.0719 3.4 92.0719H5V90.054H3V91.6683ZM3.5 90.5584H4.5V91.5674H3.5V90.5584Z" fill="black"/>
<path d="M8.00012 92.0719H9.60012C9.70621 92.0719 9.80795 92.0293 9.88296 91.9536C9.95798 91.878 10.0001 91.7753 10.0001 91.6683V90.054H8.00012V92.0719ZM8.50012 90.5584H9.50012V91.5674H8.50012V90.5584Z" fill="black"/>
<path d="M9.60012 85.009H8.00012V87.0269H10.0001V85.4126C10.0001 85.3056 9.95798 85.2029 9.88296 85.1272C9.80795 85.0516 9.70621 85.009 9.60012 85.009V85.009ZM9.50012 86.5225H8.50012V85.5135H9.50012V86.5225Z" fill="black"/>
<path d="M7 86.5225V86.0181H6V87.027H6.5V86.5225H7Z" fill="black"/>
<path d="M4.99988 87.0269H5.49988V87.5313H4.99988V87.0269Z" fill="black"/>
<path d="M5.5 87.5312H6.5V88.0357H5.5V87.5312Z" fill="black"/>
<path d="M7 85.5135V86.018H7.5V85.009H5.5V86.018H6V85.5135H7Z" fill="black"/>
<path d="M3 87.5312H3.5V88.5402H3V87.5312Z" fill="black"/>
<path d="M5 88.0357V88.5402H4.5V87.5312H4V88.5402H3.5V89.0447H3V89.5491H4V89.0447H4.5V89.5491H5V89.0447H5.5V88.0357H5Z" fill="black"/>
<path d="M7 88.0359H7.5V88.5404H8V88.0359H8.5V87.5314H7.5V86.5225H7V87.0269H6.5V87.5314H7V88.0359Z" fill="black"/>
<path d="M6.5 91.5672H5.5V92.0717H7.5V91.5672H7V91.0627H6.5V91.5672Z" fill="black"/>
<path d="M7.5 89.0446V88.5401H7V88.0356H6.5V88.5401H6V89.0446H6.5V89.5491H7V89.0446H7.5Z" fill="black"/>
<path d="M9.5 89.0447H10V89.5492H9.5V89.0447Z" fill="black"/>
<path d="M7.5 89.0447H9V89.5492H7.5V89.0447Z" fill="black"/>
<path d="M9.5 87.5312H9V88.0357H8.5V88.5402H9V89.0447H9.5V88.5402H10V88.0357H9.5V87.5312Z" fill="black"/>
<path d="M7 89.5493H7.5V91.0627H7V89.5493Z" fill="black"/>
<path d="M5.5 91.0626H6V90.5581H6.5V90.0536H6V89.0447H5.5V91.0626Z" fill="black"/>
<path d="M11.1364 95.4545H1.59091V82.7273H11.1364V95.4545ZM8.18182 98.1818H4.54545V97.2727H8.18182V98.1818ZM10 80H2.72727C2.00395 80 1.31026 80.2873 0.7988 80.7988C0.287337 81.3103 0 82.004 0 82.7273V97.2727C0 97.996 0.287337 98.6897 0.7988 99.2012C1.31026 99.7127 2.00395 100 2.72727 100H10C10.7233 100 11.417 99.7127 11.9285 99.2012C12.4399 98.6897 12.7273 97.996 12.7273 97.2727V82.7273C12.7273 82.004 12.4399 81.3103 11.9285 80.7988C11.417 80.2873 10.7233 80 10 80V80Z" fill="black"/>
</svg>
