<svg width="63" height="156" viewBox="0 0 63 156" fill="none" xmlns="http://www.w3.org/2000/svg">
<path d="M54.2449 54.3448V54.2717L54.2239 54.2017C53.996 53.4388 53.4543 52.9539 52.8164 52.6883C52.1914 52.428 51.4656 52.3713 50.7915 52.4382C50.1161 52.5053 49.4485 52.7007 48.928 52.9888C48.4403 53.2587 47.9359 53.6954 47.8882 54.3058L47.8866 54.3253V54.3448V149.707C47.607 152.012 46.6697 153.517 45.4648 154.41C44.2469 155.312 42.7006 155.63 41.1479 155.453C38.0077 155.094 35.0739 152.76 34.9228 149.562V91.1599V91.1075L34.9119 91.0562C34.6851 89.9861 34.1254 89.2574 33.3794 88.8461C32.6492 88.4434 31.7931 88.3731 31.0004 88.5032C30.2068 88.6335 29.4339 88.9708 28.8422 89.4402C28.2578 89.9038 27.7923 90.5466 27.7533 91.2977L27.7525 91.3135L27.7526 91.3293C27.9363 107.326 27.9275 123.323 27.9188 139.324C27.9169 142.73 27.915 146.135 27.915 149.541C27.6136 151.833 26.6635 153.356 25.446 154.28C24.216 155.213 22.6653 155.57 21.1178 155.434C17.9887 155.159 15.0873 152.918 14.9511 149.726L14.7888 54.344L14.7887 54.2678L14.7658 54.1951C14.2923 52.6868 12.7194 52.3229 11.4876 52.4415C10.849 52.5029 10.2182 52.6941 9.72586 52.9853C9.25455 53.264 8.79747 53.7069 8.75627 54.3108L8.75511 54.3278V54.3448V95.8648C8.48764 97.4961 7.83551 98.5552 7.05273 99.1832C6.26268 99.8171 5.29486 100.048 4.33653 99.9423C2.40029 99.7281 0.590167 98.1566 0.5 95.8952V51.895C0.611791 45.8662 2.80292 39.9612 7.86949 37.195C9.5117 36.3163 11.5361 35.8644 13.9639 35.8644L46.9251 35.8646C49.2367 35.8646 51.3534 36.3133 53.283 37.2053C59.0574 40.1377 62.4561 45.6957 62.5 51.8923V95.8648C62.2326 97.4961 61.5804 98.5552 60.7977 99.1832C60.0076 99.8171 59.0398 100.048 58.0815 99.9423C56.1452 99.7281 54.335 98.1566 54.2449 95.8952V54.3448ZM46.2614 15.376C46.2614 23.5955 39.6502 30.2522 31.5029 30.2522C23.3558 30.2522 16.7445 23.5955 16.7445 15.376C16.7444 7.15666 23.3556 0.5 31.5026 0.5C39.6502 0.5 46.2614 7.15668 46.2614 15.376Z" fill="#4ECB71" stroke="black"/>
</svg>
