<svg width="16" height="16" viewBox="0 0 16 16" fill="none" xmlns="http://www.w3.org/2000/svg">
<path d="M14.125 1H1.75C1.33579 1 1 1.33579 1 1.75V14.125C1 14.5392 1.33579 14.875 1.75 14.875H14.125C14.5392 14.875 14.875 14.5392 14.875 14.125V1.75C14.875 1.33579 14.5392 1 14.125 1Z" stroke="white" stroke-linecap="round" stroke-linejoin="round"/>
<path d="M2.971 4.72225H6.346M7.9375 1V14.875V1ZM1 7.9375H14.875H1ZM9.71012 4.72225H13.0851H9.71012ZM10.2962 9.697L12.5462 13.072L10.2962 9.697ZM3.1585 9.93325L6.1585 12.9096L3.1585 9.93325ZM6.14387 9.90962L3.1585 12.898L6.14387 9.90962ZM4.6585 3.03475V6.40975V3.03475Z" stroke="white" stroke-linecap="round" stroke-linejoin="round"/>
</svg>
