<svg width="26" height="26" viewBox="0 0 26 26" fill="none" xmlns="http://www.w3.org/2000/svg">
<path d="M12.8 10.85C12.8 11.3672 12.5946 11.8632 12.2289 12.2289C11.8632 12.5946 11.3672 12.8 10.85 12.8C10.3328 12.8 9.83684 12.5946 9.47114 12.2289C9.10545 11.8632 8.9 11.3672 8.9 10.85C8.9 10.3328 9.10545 9.83684 9.47114 9.47114C9.83684 9.10545 10.3328 8.9 10.85 8.9C11.3672 8.9 11.8632 9.10545 12.2289 9.47114C12.5946 9.83684 12.8 10.3328 12.8 10.85ZM7.6 15.0087C7.60034 14.6816 7.73043 14.368 7.96172 14.1367C8.19301 13.9054 8.50661 13.7753 8.8337 13.775H12.865C13.1921 13.7753 13.5057 13.9054 13.737 14.1367C13.9683 14.368 14.0984 14.6816 14.0987 15.0087C14.0987 16.1098 13.3486 17.0692 12.28 17.337L12.2033 17.3565C11.3141 17.5775 10.3833 17.5775 9.4941 17.3565L9.4161 17.337C8.89717 17.2069 8.4366 16.9071 8.10756 16.4852C7.77852 16.0634 7.59987 15.5437 7.6 15.0087V15.0087ZM17.35 10.2C17.1776 10.2 17.0123 10.2685 16.8904 10.3904C16.7685 10.5123 16.7 10.6776 16.7 10.85C16.7 11.0224 16.7685 11.1877 16.8904 11.3096C17.0123 11.4315 17.1776 11.5 17.35 11.5H21.25C21.4224 11.5 21.5877 11.4315 21.7096 11.3096C21.8315 11.1877 21.9 11.0224 21.9 10.85C21.9 10.6776 21.8315 10.5123 21.7096 10.3904C21.5877 10.2685 21.4224 10.2 21.25 10.2H17.35ZM17.35 14.1C17.1776 14.1 17.0123 14.1685 16.8904 14.2904C16.7685 14.4123 16.7 14.5776 16.7 14.75C16.7 14.9224 16.7685 15.0877 16.8904 15.2096C17.0123 15.3315 17.1776 15.4 17.35 15.4H21.25C21.4224 15.4 21.5877 15.3315 21.7096 15.2096C21.8315 15.0877 21.9 14.9224 21.9 14.75C21.9 14.5776 21.8315 14.4123 21.7096 14.2904C21.5877 14.1685 21.4224 14.1 21.25 14.1H17.35ZM5 7.275C5 6.0192 6.0192 5 7.275 5H23.525C24.7808 5 25.8 6.0192 25.8 7.275V18.325C25.8 18.9284 25.5603 19.507 25.1337 19.9337C24.707 20.3603 24.1284 20.6 23.525 20.6H7.275C6.67163 20.6 6.09298 20.3603 5.66633 19.9337C5.23969 19.507 5 18.9284 5 18.325V7.275ZM7.275 6.3C7.01641 6.3 6.76842 6.40272 6.58557 6.58557C6.40272 6.76842 6.3 7.01641 6.3 7.275V18.325C6.3 18.8632 6.7368 19.3 7.275 19.3H23.525C23.7836 19.3 24.0316 19.1973 24.2144 19.0144C24.3973 18.8316 24.5 18.5836 24.5 18.325V7.275C24.5 7.01641 24.3973 6.76842 24.2144 6.58557C24.0316 6.40272 23.7836 6.3 23.525 6.3H7.275Z" fill="white"/>
</svg>
