<svg width="21" height="16" viewBox="0 0 21 16" fill="none" xmlns="http://www.w3.org/2000/svg">
<path d="M7.8 5.85C7.8 6.36717 7.59455 6.86316 7.22886 7.22886C6.86316 7.59455 6.36717 7.8 5.85 7.8C5.33283 7.8 4.83684 7.59455 4.47114 7.22886C4.10545 6.86316 3.9 6.36717 3.9 5.85C3.9 5.33283 4.10545 4.83684 4.47114 4.47114C4.83684 4.10545 5.33283 3.9 5.85 3.9C6.36717 3.9 6.86316 4.10545 7.22886 4.47114C7.59455 4.83684 7.8 5.33283 7.8 5.85ZM2.6 10.0087C2.60034 9.68161 2.73043 9.36801 2.96172 9.13672C3.19301 8.90543 3.50661 8.77534 3.8337 8.775H7.865C8.19209 8.77534 8.50569 8.90543 8.73698 9.13672C8.96827 9.36801 9.09836 9.68161 9.0987 10.0087C9.0987 11.1098 8.3486 12.0692 7.28 12.337L7.2033 12.3565C6.3141 12.5775 5.3833 12.5775 4.4941 12.3565L4.4161 12.337C3.89717 12.2069 3.4366 11.9071 3.10756 11.4852C2.77852 11.0634 2.59987 10.5437 2.6 10.0087V10.0087ZM12.35 5.2C12.1776 5.2 12.0123 5.26848 11.8904 5.39038C11.7685 5.51228 11.7 5.67761 11.7 5.85C11.7 6.02239 11.7685 6.18772 11.8904 6.30962C12.0123 6.43152 12.1776 6.5 12.35 6.5H16.25C16.4224 6.5 16.5877 6.43152 16.7096 6.30962C16.8315 6.18772 16.9 6.02239 16.9 5.85C16.9 5.67761 16.8315 5.51228 16.7096 5.39038C16.5877 5.26848 16.4224 5.2 16.25 5.2H12.35ZM12.35 9.1C12.1776 9.1 12.0123 9.16848 11.8904 9.29038C11.7685 9.41228 11.7 9.57761 11.7 9.75C11.7 9.92239 11.7685 10.0877 11.8904 10.2096C12.0123 10.3315 12.1776 10.4 12.35 10.4H16.25C16.4224 10.4 16.5877 10.3315 16.7096 10.2096C16.8315 10.0877 16.9 9.92239 16.9 9.75C16.9 9.57761 16.8315 9.41228 16.7096 9.29038C16.5877 9.16848 16.4224 9.1 16.25 9.1H12.35ZM0 2.275C0 1.0192 1.0192 0 2.275 0H18.525C19.7808 0 20.8 1.0192 20.8 2.275V13.325C20.8 13.9284 20.5603 14.507 20.1337 14.9337C19.707 15.3603 19.1284 15.6 18.525 15.6H2.275C1.67163 15.6 1.09298 15.3603 0.666332 14.9337C0.239687 14.507 0 13.9284 0 13.325V2.275ZM2.275 1.3C2.01641 1.3 1.76842 1.40272 1.58557 1.58557C1.40272 1.76842 1.3 2.01641 1.3 2.275V13.325C1.3 13.8632 1.7368 14.3 2.275 14.3H18.525C18.7836 14.3 19.0316 14.1973 19.2144 14.0144C19.3973 13.8316 19.5 13.5836 19.5 13.325V2.275C19.5 2.01641 19.3973 1.76842 19.2144 1.58557C19.0316 1.40272 18.7836 1.3 18.525 1.3H2.275Z" fill="white"/>
</svg>
