<svg width="161" height="224" viewBox="0 0 161 224" fill="none" xmlns="http://www.w3.org/2000/svg">
<path d="M1.17064 5.46625L1.17065 218.533C1.17065 220.912 3.09927 222.841 5.47835 222.841L154.726 222.841C157.105 222.841 159.033 220.912 159.033 218.533L159.033 5.46624C159.033 3.08717 157.105 1.15855 154.726 1.15855L5.47834 1.15855C3.09926 1.15855 1.17064 3.08717 1.17064 5.46625Z" fill="white"/>
<path d="M160.204 5.47829L160.204 218.522C160.201 219.974 159.623 221.365 158.596 222.392C157.569 223.419 156.178 223.997 154.726 224L5.47826 224C4.02629 223.997 2.63466 223.419 1.60796 222.392C0.581256 221.365 0.00309243 219.974 -2.39462e-07 218.522L-9.55189e-06 5.4783C0.00308299 4.02634 0.581247 2.63472 1.60795 1.60802C2.63465 0.581314 4.02628 0.00314313 5.47825 6.07957e-05L154.726 5.42719e-05C156.178 0.00313648 157.569 0.581307 158.596 1.60801C159.623 2.63471 160.201 4.02633 160.204 5.47829ZM2.34114 218.522C2.34422 219.353 2.67573 220.149 3.26339 220.737C3.85104 221.324 4.64719 221.656 5.47826 221.659L154.726 221.659C155.557 221.656 156.353 221.324 156.941 220.737C157.528 220.149 157.86 219.353 157.863 218.522L157.863 5.4783C157.86 4.64724 157.528 3.85107 156.941 3.26341C156.353 2.67576 155.557 2.34428 154.726 2.3412L5.47825 2.3412C4.64718 2.34428 3.85103 2.67577 3.26338 3.26341C2.67572 3.85107 2.34421 4.64725 2.34113 5.4783L2.34114 218.522Z" fill="#093F68"/>
<path d="M9.91461 212.505L9.9146 11.4947L150.289 11.4947L150.289 212.505L9.91461 212.505Z" fill="#DFEAEF"/>
<path d="M151.507 11.4947L151.507 212.505C151.507 212.815 151.383 213.113 151.164 213.332C150.944 213.552 150.646 213.675 150.336 213.675L9.86777 213.675C9.55732 213.675 9.25958 213.552 9.04006 213.332C8.82053 213.113 8.6972 212.815 8.6972 212.505L8.6972 11.4948C8.6972 11.1843 8.82052 10.8865 9.04005 10.667C9.25957 10.4475 9.55731 10.3242 9.86776 10.3242L150.336 10.3242C150.646 10.3242 150.944 10.4475 151.164 10.667C151.383 10.8865 151.507 11.1843 151.507 11.4947ZM149.165 211.334L149.165 12.6653L11.0383 12.6653L11.0383 211.334L149.165 211.334Z" fill="#093F68"/>
<path d="M90.567 212.505C90.567 212.505 86.3412 177.177 98.3513 153.18C110.361 129.184 150.336 112 150.336 112L150.336 212.505L90.567 212.505Z" fill="#68E1FD"/>
<path d="M151.507 112L151.507 212.505C151.507 212.815 151.383 213.113 151.164 213.332C150.944 213.552 150.646 213.675 150.336 213.675L90.637 213.675C90.3495 213.677 90.0712 213.573 89.8553 213.383C89.6394 213.193 89.501 212.931 89.4665 212.645C88.7721 205.719 88.5648 198.753 88.8461 191.797C89.2558 180.888 91.0701 165.237 97.3561 152.654C102.436 142.505 112.831 132.391 128.247 122.605C135.173 118.198 142.402 114.286 149.879 110.899C150.059 110.823 150.255 110.792 150.449 110.811C150.643 110.829 150.83 110.896 150.992 111.005C151.154 111.114 151.286 111.263 151.376 111.437C151.466 111.61 151.511 111.804 151.507 112ZM149.165 211.334L149.165 113.814C141.58 117.326 109.741 133.093 99.4397 153.707C88.9046 174.836 91.1053 205.364 91.6671 211.334L149.165 211.334Z" fill="#093F68"/>
<path d="M65.5636 212.505C65.5636 212.505 45.8044 131.279 49.1171 100.996C52.067 73.886 99.5686 52.6284 104.567 11.4947L89.5368 11.4947C89.5368 11.4947 75.7241 47.3609 54.1389 66.3709C32.5536 85.3809 35.5268 103.548 36.0185 121.516C36.4867 138.162 50.2877 212.505 50.2877 212.505L65.5636 212.505Z" fill="#68E1FD"/>
<path d="M105.737 11.4955L105.737 11.6359C102.94 34.6493 87.0784 51.5289 73.0785 66.4185C61.5366 78.6978 51.5634 89.3148 50.2758 101.114C47.0333 130.858 66.5116 211.417 66.6637 212.225C66.7072 212.4 66.7094 212.583 66.6704 212.759C66.6314 212.935 66.552 213.1 66.4387 213.241C66.3253 213.381 66.181 213.494 66.017 213.569C65.8529 213.645 65.6737 213.681 65.4932 213.676L50.2875 213.676C50.0103 213.681 49.7405 213.587 49.5262 213.411C49.3118 213.235 49.1668 212.989 49.1169 212.716C48.555 209.684 35.2925 138.092 34.836 121.552C34.836 119.925 34.7306 118.286 34.6604 116.659C34.0049 100.178 33.3142 83.1342 53.3895 65.4938C74.4597 46.9051 88.3309 11.4252 88.5065 11.074C88.5914 10.854 88.7408 10.6648 88.935 10.5312C89.1293 10.3975 89.3594 10.3256 89.5952 10.3249L104.567 10.3249C104.733 10.3251 104.897 10.3607 105.049 10.4293C105.2 10.4979 105.335 10.598 105.445 10.7229C105.633 10.9363 105.737 11.2109 105.737 11.4955ZM47.5718 108.922C47.5549 106.233 47.68 103.544 47.9463 100.868C49.3159 88.2847 60.0266 76.8834 71.3577 64.8148C84.8427 50.4754 100.083 34.2513 103.221 12.666L90.3443 12.666C88.2022 17.9453 74.7407 49.7964 54.9229 67.2496C35.7256 84.1526 36.3577 99.8968 37.0249 116.566C37.0952 118.204 37.1537 119.843 37.2005 121.482C37.6336 136.828 49.6554 202.591 51.2474 211.335L64.1236 211.335C61.5952 200.964 47.5718 140.75 47.5718 108.922Z" fill="#093F68"/>
<path d="M92.1121 114.341L81.2726 121.036C80.9178 121.257 80.5229 121.406 80.1105 121.474C79.6981 121.541 79.2764 121.527 78.8695 121.431C78.4627 121.336 78.0788 121.16 77.7399 120.916C77.401 120.671 77.1138 120.362 76.8947 120.006L69.8713 108.687C69.5611 108.188 69.3968 107.612 69.3968 107.025C69.3968 106.437 69.5611 105.861 69.8713 105.363L79.5051 89.5833C79.813 89.0809 80.2543 88.6738 80.7799 88.4073C81.3054 88.1408 81.8946 88.0254 82.4819 88.074C83.0692 88.1225 83.6314 88.3331 84.1061 88.6822C84.5808 89.0313 84.9493 89.5053 85.1706 90.0515L93.3646 110.419C93.6562 111.115 93.6903 111.892 93.4608 112.611C93.2312 113.33 92.753 113.943 92.1121 114.341Z" fill="#70CC40"/>
<path d="M94.7928 111.614C94.7913 112.355 94.6015 113.083 94.241 113.73C93.8806 114.377 93.3615 114.922 92.7326 115.313L81.8931 122.032C81.4086 122.337 80.8679 122.542 80.303 122.634C79.738 122.727 79.1603 122.705 78.6038 122.57C77.4779 122.306 76.502 121.607 75.8881 120.627L68.8647 109.308C68.437 108.623 68.2102 107.832 68.2102 107.025C68.2102 106.218 68.437 105.427 68.8647 104.743L78.4985 88.9751C78.9128 88.2833 79.5135 87.7221 80.2318 87.3557C80.9502 86.9893 81.7571 86.8325 82.5603 86.9032C83.3665 86.9687 84.1385 87.2575 84.7898 87.7372C85.4411 88.2168 85.9459 88.8684 86.2476 89.6189L94.4416 109.987C94.6616 110.502 94.7809 111.054 94.7928 111.614ZM91.5035 113.323C91.9044 113.07 92.2036 112.684 92.3491 112.232C92.4945 111.781 92.477 111.293 92.2995 110.853L84.1055 90.4851C83.9651 90.1401 83.7318 89.8408 83.4315 89.6205C83.1312 89.4002 82.7757 89.2675 82.4045 89.2372C82.0333 89.2069 81.661 89.2801 81.3289 89.4488C80.9968 89.6174 80.718 89.8748 80.5236 90.1925L70.8898 105.972C70.6913 106.287 70.5859 106.652 70.5859 107.025C70.5859 107.398 70.6913 107.763 70.8898 108.079L77.9132 119.398C78.0503 119.622 78.2306 119.816 78.4437 119.968C78.6568 120.121 78.8983 120.23 79.154 120.288C79.4112 120.351 79.6784 120.361 79.9398 120.319C80.2012 120.277 80.4514 120.183 80.6757 120.042L91.5035 113.323Z" fill="#093F68"/>
<path d="M150.336 95.8809L150.336 102.752L78.9312 135.411L78.9313 212.505L72.6804 212.505L72.6804 133.421C72.68 132.822 72.852 132.235 73.1757 131.731C73.4995 131.226 73.9614 130.826 74.5065 130.577L77.0115 129.406L101.348 118.274L107.048 115.664L150.336 95.8809Z" fill="white"/>
<path d="M9.86785 23.9142C10.4067 23.9032 10.9391 24.0323 11.413 24.2888C11.887 24.5453 12.2863 24.9204 12.5719 25.3774L59.5585 101.277L63.1521 107.13L76.9766 129.453L78.4281 131.794C78.7335 132.286 78.8957 132.853 78.8963 133.433C78.9051 134.122 78.6861 134.794 78.2731 135.346C77.8602 135.897 77.2765 136.297 76.6129 136.483C75.9493 136.668 75.243 136.629 74.6038 136.372C73.9647 136.115 73.4284 135.653 73.0786 135.06L72.6103 134.299L56.8311 108.816L56.6321 108.464L33.6304 71.2637L30.2826 65.8557L9.86785 32.9627L9.86785 23.9142Z" fill="white"/>
<path d="M150.336 21.7141L150.336 29.194L90.0636 68.689L88.5185 69.6957L85.4399 74.2375L63.1991 107.013L62.0285 108.687C61.7982 109.026 61.5034 109.316 61.161 109.54C60.8185 109.764 60.4352 109.919 60.0329 109.995C59.6306 110.071 59.2173 110.067 58.8165 109.984C58.4157 109.9 58.0355 109.738 57.6974 109.507C57.3781 109.298 57.1002 109.032 56.878 108.722L56.679 108.371C56.4178 107.874 56.2972 107.314 56.3302 106.753C56.3632 106.192 56.5485 105.651 56.8663 105.187L59.5703 101.196L83.6138 65.8211C83.6266 65.7832 83.6512 65.7503 83.684 65.7274C83.7212 65.6548 83.7685 65.5878 83.8245 65.5284C83.8695 65.4548 83.9247 65.3878 83.9884 65.3294C84.0813 65.227 84.1832 65.133 84.2927 65.0485C84.4306 64.9326 84.5796 64.8307 84.7375 64.7442L150.336 21.7141Z" fill="white"/>
<path d="M107.692 118.122C107.692 118.857 107.433 119.568 106.96 120.131C106.487 120.694 105.831 121.072 105.107 121.199C104.384 121.327 103.638 121.195 103.002 120.826C102.365 120.458 101.879 119.878 101.629 119.187L83.356 68.5363C83.1712 68.143 83.0706 67.7154 83.0604 67.281C83.0502 66.8465 83.1307 66.4147 83.2968 66.0131C83.4629 65.6115 83.7109 65.249 84.025 64.9486C84.3391 64.6483 84.7124 64.4168 85.1211 64.2689C85.5297 64.1209 85.9647 64.0599 86.3983 64.0895C86.8319 64.1192 87.2545 64.2389 87.6391 64.4411C88.0238 64.6433 88.3621 64.9236 88.6324 65.2639C88.9027 65.6042 89.099 65.9971 89.2088 66.4176L107.481 117.068C107.614 117.404 107.685 117.761 107.692 118.122Z" fill="white"/>
<path d="M35.4565 65.3765C35.7348 65.6778 35.9504 66.0314 36.0906 66.4168C36.2309 66.8022 36.293 67.2117 36.2734 67.6214C36.2538 68.031 36.1528 68.4327 35.9764 68.8029C35.8 69.1732 35.5516 69.5046 35.2458 69.7779L33.6304 71.2645L9.86786 92.7913L9.86786 84.3515L30.2358 65.8565L31.0083 65.1659C31.312 64.8833 31.6691 64.6642 32.0587 64.5215C32.4482 64.3789 32.8624 64.3155 33.2767 64.3351C33.6911 64.3548 34.0974 64.457 34.4717 64.6358C34.846 64.8147 35.1809 65.0665 35.4565 65.3765Z" fill="white"/>
<path d="M75.6655 164.582C76.4926 164.553 77.2972 164.854 77.9029 165.418C78.5085 165.982 78.8658 166.763 78.8963 167.59L78.8963 167.707C78.8938 168.517 78.5781 169.295 78.0151 169.878C77.4522 170.46 76.6857 170.802 75.8762 170.833L72.6454 170.95L9.86786 173.092L9.86786 166.841L72.6454 164.675L75.6655 164.582Z" fill="white"/>
<path d="M97.1806 70.4091L109.518 100.984L150.289 78.9075L150.289 40.2202L129.769 53.3422L134.791 64.5446L121.013 72.8439L115.242 60.2486L97.1806 70.4091Z" fill="#DFEAEF"/>
<path d="M151.507 40.2207L151.507 78.8494C151.507 79.06 151.451 79.2668 151.344 79.4481C151.237 79.6294 151.083 79.7785 150.898 79.8795L110.127 101.956C109.982 102.037 109.821 102.087 109.656 102.101C109.49 102.115 109.324 102.094 109.167 102.038C109.011 101.982 108.869 101.894 108.75 101.779C108.631 101.664 108.538 101.525 108.477 101.371L96.1388 70.7842C96.0345 70.5209 96.0293 70.2287 96.124 69.9618C96.2187 69.6949 96.4069 69.4714 96.6538 69.3327L114.716 59.1722C114.857 59.0926 115.013 59.0432 115.174 59.0271C115.335 59.011 115.498 59.0285 115.652 59.0785C115.806 59.128 115.947 59.2086 116.068 59.3154C116.189 59.4222 116.286 59.5527 116.355 59.699L121.575 71.112L133.339 64.0183L128.739 53.7642C128.625 53.5075 128.608 53.2185 128.69 52.9499C128.771 52.6813 128.947 52.451 129.184 52.301L149.704 39.1789C149.881 39.0655 150.085 39.0017 150.295 38.9943C150.504 38.9868 150.712 39.0359 150.897 39.1365C151.081 39.237 151.235 39.3853 151.342 39.5657C151.45 39.7462 151.506 39.9522 151.507 40.1622L151.507 40.2207ZM149.166 78.2056L149.166 42.3628L131.291 53.7876L135.856 64.0066C135.974 64.2687 135.992 64.565 135.905 64.8392C135.819 65.1134 135.635 65.3462 135.388 65.4933L121.61 73.7926C121.469 73.8777 121.312 73.9321 121.149 73.9522C120.985 73.9724 120.82 73.9579 120.662 73.9096C120.505 73.8768 120.357 73.812 120.226 73.7194C120.095 73.6268 119.985 73.5083 119.901 73.3712L114.669 61.923L98.597 70.9598L110.069 99.3695L149.166 78.2056Z" fill="#093F68"/>
<path d="M13.7541 11.495L41.0986 51.6455C41.0986 51.6455 70.0234 36.4281 76.8595 11.495L13.7541 11.495Z" fill="#70CC40"/>
<path d="M78.0299 11.495C78.0476 11.5956 78.0476 11.6986 78.0299 11.7993C74.4246 24.9565 64.7206 35.3745 57.2172 41.8009C52.424 45.9443 47.2236 49.5917 41.6955 52.6872C41.4416 52.8206 41.1476 52.8561 40.8692 52.7871C40.5909 52.718 40.3476 52.5492 40.1855 52.3126L12.7824 12.1505C12.6688 11.9788 12.6025 11.7801 12.5902 11.5746C12.5778 11.3691 12.6199 11.164 12.7122 10.9799C12.8127 10.7912 12.9629 10.6337 13.1465 10.5243C13.3302 10.4149 13.5403 10.3579 13.754 10.3595L76.8594 10.3595C77.1698 10.3595 77.4676 10.4828 77.6871 10.7023C77.9066 10.9219 78.0299 11.2196 78.0299 11.5301L78.0299 11.495ZM41.4614 50.1237C46.2724 47.3611 68.7122 33.5133 75.2908 12.6655L15.9664 12.6655L41.4614 50.1237Z" fill="#093F68"/>
<path d="M41.637 212.505C41.637 212.505 43.5684 199.359 33.1504 191.54C22.7323 183.72 9.91461 182.175 9.91461 182.175L9.91461 212.505L41.637 212.505Z" fill="#70CC40"/>
<path d="M42.9597 209.883C42.9687 210.818 42.914 211.753 42.7959 212.68C42.7535 212.96 42.6118 213.214 42.3966 213.397C42.1815 213.58 41.9076 213.679 41.6253 213.675L9.86777 213.675C9.55732 213.675 9.25958 213.552 9.04006 213.333C8.82053 213.113 8.6972 212.815 8.6972 212.505L8.6972 182.164C8.69741 181.998 8.73302 181.833 8.80164 181.682C8.87026 181.531 8.97033 181.396 9.09519 181.286C9.21907 181.177 9.36443 181.096 9.52176 181.048C9.67909 181 9.84486 180.985 10.0082 181.005C18.5873 182.281 26.7423 185.57 33.8059 190.604C41.836 196.597 42.9597 205.423 42.9597 209.883ZM40.6186 211.334C40.7942 208.221 40.6186 198.552 32.5066 192.476C24.3945 186.401 14.55 184.165 11.0383 183.533L11.0383 211.334L40.6186 211.334Z" fill="#093F68"/>
<path d="M9.91461 155.978L25.846 155.978L24.6872 95.3194L9.91461 95.3194L9.91461 155.978Z" fill="#DFEAEF"/>
<path d="M27.0166 155.978C27.0153 156.285 26.8934 156.579 26.6771 156.797C26.5713 156.911 26.4425 157.001 26.2992 157.062C26.156 157.122 26.0015 157.152 25.846 157.148L9.86777 157.148C9.55732 157.148 9.25958 157.025 9.04006 156.806C8.82053 156.586 8.6972 156.288 8.6972 155.978L8.6972 95.319C8.6972 95.0085 8.82053 94.7108 9.04005 94.4913C9.25958 94.2717 9.55732 94.1484 9.86777 94.1484L24.6403 94.1484C24.9508 94.1484 25.2485 94.2717 25.4681 94.4913C25.6876 94.7108 25.8109 95.0085 25.8109 95.319L26.9815 155.978L27.0166 155.978ZM11.0852 154.807L24.652 154.807L23.54 96.4895L11.0383 96.4895L11.0852 154.807Z" fill="#093F68"/>
<path d="M108.617 24.395L114.482 34.6492L127.967 25.5655L120.931 15.3114L108.617 24.395Z" fill="#DFEAEF"/>
<path d="M129.137 25.5649L129.137 25.7873C129.107 25.9393 129.047 26.0837 128.96 26.2123C128.874 26.3409 128.763 26.4511 128.634 26.5364L115.16 35.6201C115.027 35.7117 114.876 35.7747 114.716 35.8049C114.557 35.8351 114.394 35.832 114.236 35.7956C114.079 35.7586 113.931 35.6896 113.802 35.5929C113.674 35.4962 113.566 35.374 113.487 35.2338L107.634 24.9796C107.492 24.7299 107.448 24.4369 107.508 24.1564C107.568 23.8758 107.73 23.6272 107.961 23.4578L120.264 14.3625C120.391 14.2695 120.535 14.2029 120.687 14.1667C120.84 14.1305 120.999 14.1255 121.154 14.1518C121.309 14.1777 121.457 14.2345 121.59 14.319C121.723 14.4035 121.837 14.5138 121.926 14.6435L128.95 24.9094C129.08 25.1025 129.146 25.3321 129.137 25.5649ZM114.868 32.9746L126.328 25.2605L120.65 16.9729L110.115 24.7221L114.868 32.9746Z" fill="#093F68"/>
<path d="M68.8645 153.181L61.127 154.516L57.03 136.348L65.2357 133.41L68.8645 153.181Z" fill="#DFEAEF"/>
<path d="M70.035 153.181C70.0344 153.419 69.9609 153.652 69.8243 153.848C69.7354 153.974 69.6224 154.081 69.4918 154.164C69.3612 154.246 69.2157 154.302 69.0635 154.328L61.3728 155.674C61.0755 155.726 60.7695 155.662 60.5186 155.494C60.2678 155.326 60.0915 155.067 60.0267 154.773L55.9297 136.605C55.8674 136.327 55.9091 136.035 56.0471 135.785C56.1851 135.534 56.4098 135.343 56.6788 135.248L64.8728 132.309C65.0336 132.252 65.205 132.231 65.3748 132.247C65.5447 132.264 65.7089 132.317 65.8561 132.403C66.0014 132.488 66.1268 132.602 66.2238 132.74C66.3207 132.877 66.387 133.034 66.418 133.199L70.0116 152.97L70.035 153.181ZM62.0283 153.181L67.4949 152.244L64.3226 134.99L58.3996 137.109L62.0283 153.181Z" fill="#093F68"/>
<path d="M83.6957 141.627L86.2943 155.978L97.1806 138.104L83.6957 141.627Z" fill="#DFEAEF"/>
<path d="M98.3511 138.104C98.3496 138.319 98.2888 138.529 98.1755 138.712L87.2892 156.587C87.1646 156.786 86.9829 156.944 86.7677 157.038C86.5525 157.133 86.3137 157.161 86.0825 157.118C85.8514 157.075 85.6385 156.963 85.4716 156.798C85.3048 156.632 85.1917 156.42 85.1471 156.189L82.5367 141.826C82.4864 141.535 82.5476 141.237 82.7082 140.989C82.8689 140.742 83.117 140.564 83.4029 140.492L96.8762 136.98C97.053 136.932 97.2385 136.927 97.4179 136.964C97.5973 137.001 97.7654 137.079 97.9089 137.193C98.0523 137.307 98.1671 137.453 98.2439 137.619C98.3207 137.786 98.3574 137.967 98.3511 138.151L98.3511 138.104ZM86.8912 152.736L94.6755 139.965L85.0417 142.435L86.8912 152.736Z" fill="#093F68"/>
<path d="M16.9029 69.731L24.6872 62.7895L20.8009 57.5102L13.0751 64.639L16.9029 69.731Z" fill="#DFEAEF"/>
<path d="M25.8579 62.8361C25.8575 62.9995 25.8229 63.1609 25.7564 63.3101C25.6899 63.4593 25.5929 63.5929 25.4716 63.7023L17.6873 70.6438C17.5658 70.7527 17.4228 70.835 17.2676 70.8854C17.1124 70.9358 16.9483 70.9532 16.786 70.9364C16.6253 70.921 16.4696 70.8724 16.3286 70.7939C16.1876 70.7153 16.0643 70.6084 15.9666 70.4799L12.1388 65.3997C11.9629 65.1676 11.8799 64.8783 11.9059 64.5882C11.9318 64.2982 12.065 64.0282 12.2793 63.8311L20.0051 56.7023C20.1256 56.5913 20.2681 56.5069 20.4234 56.4545C20.5787 56.402 20.7432 56.3828 20.9064 56.398C21.07 56.4133 21.2286 56.4629 21.3718 56.5436C21.515 56.6243 21.6396 56.7342 21.7375 56.8662L25.6355 62.1338C25.7833 62.3378 25.8613 62.5842 25.8579 62.8361ZM17.0786 68.0569L23.1188 62.6722L20.6255 59.301L14.6439 64.8261L17.0786 68.0569Z" fill="#093F68"/>
<path d="M151.507 11.4947L151.507 212.505C151.507 212.815 151.383 213.113 151.164 213.332C150.944 213.552 150.646 213.675 150.336 213.675L9.86777 213.675C9.55732 213.675 9.25958 213.552 9.04006 213.332C8.82053 213.113 8.6972 212.815 8.6972 212.505L8.6972 11.4948C8.6972 11.1843 8.82052 10.8865 9.04005 10.667C9.25957 10.4475 9.55731 10.3242 9.86776 10.3242L150.336 10.3242C150.646 10.3242 150.944 10.4475 151.164 10.667C151.383 10.8865 151.507 11.1843 151.507 11.4947ZM149.165 211.334L149.165 12.6653L11.0383 12.6653L11.0383 211.334L149.165 211.334Z" fill="#093F68"/>
<path d="M102.587 128.585L80.1019 137.719L80.8046 176.365L77.8183 176.541L74.8321 176.716L68.8596 177.068" stroke="black" stroke-width="2"/>
<path d="M67.5552 177.074L67.5895 177.106L67.6238 177.074C73.1233 171.892 75.8591 167.382 75.8591 163.589C75.8591 159.022 72.1566 155.32 67.5895 155.32C63.0223 155.32 59.3199 159.022 59.3199 163.589C59.3199 167.382 62.0557 171.892 67.5552 177.074ZM67.5895 169.019C64.5907 169.019 62.1598 166.588 62.1598 163.589C62.1598 160.591 64.5907 158.16 67.5895 158.16C70.5882 158.16 73.0192 160.591 73.0192 163.589C73.0192 166.588 70.5882 169.019 67.5895 169.019ZM67.5895 167.749C69.8869 167.749 71.7493 165.887 71.7493 163.589C71.7493 161.292 69.8869 159.43 67.5895 159.43C65.2921 159.43 63.4297 161.292 63.4297 163.589C63.4297 165.887 65.2921 167.749 67.5895 167.749ZM68.0202 178.44C67.7769 178.665 67.402 178.665 67.1588 178.44C61.0972 172.845 58.05 167.912 58.05 163.589C58.05 158.321 62.321 154.05 67.5895 154.05C72.858 154.05 77.129 158.321 77.129 163.589C77.129 167.912 74.0818 172.845 68.0202 178.44Z" fill="#A1FFC5" stroke="black" stroke-width="0.1"/>
<path d="M112.555 44.0736L112.589 44.1059L112.624 44.0736C118.123 38.8925 120.859 34.3816 120.859 30.5895C120.859 26.0223 117.157 22.3199 112.589 22.3199C108.022 22.3199 104.32 26.0223 104.32 30.5895C104.32 34.3816 107.056 38.8925 112.555 44.0736ZM112.589 36.0192C109.591 36.0192 107.16 33.5882 107.16 30.5895C107.16 27.5907 109.591 25.1598 112.589 25.1598C115.588 25.1598 118.019 27.5907 118.019 30.5895C118.019 33.5882 115.588 36.0192 112.589 36.0192ZM112.589 34.7493C114.887 34.7493 116.749 32.8869 116.749 30.5895C116.749 28.2921 114.887 26.4297 112.589 26.4297C110.292 26.4297 108.43 28.2921 108.43 30.5895C108.43 32.8869 110.292 34.7493 112.589 34.7493ZM113.02 45.4403C112.777 45.6648 112.402 45.6648 112.159 45.4403C106.097 39.845 103.05 34.9121 103.05 30.5895C103.05 25.321 107.321 21.05 112.589 21.05C117.858 21.05 122.129 25.321 122.129 30.5895C122.129 34.9121 119.082 39.845 113.02 45.4403Z" fill="#A1FFC5" stroke="black" stroke-width="0.1"/>
<path d="M36.5552 56.0736L36.5895 56.1059L36.6238 56.0736C42.1233 50.8925 44.8591 46.3816 44.8591 42.5895C44.8591 38.0223 41.1566 34.3199 36.5895 34.3199C32.0223 34.3199 28.3199 38.0223 28.3199 42.5895C28.3199 46.3816 31.0557 50.8925 36.5552 56.0736ZM36.5895 48.0192C33.5907 48.0192 31.1598 45.5882 31.1598 42.5895C31.1598 39.5907 33.5907 37.1598 36.5895 37.1598C39.5882 37.1598 42.0192 39.5907 42.0192 42.5895C42.0192 45.5882 39.5882 48.0192 36.5895 48.0192ZM36.5895 46.7493C38.8869 46.7493 40.7493 44.8869 40.7493 42.5895C40.7493 40.2921 38.8869 38.4297 36.5895 38.4297C34.2921 38.4297 32.4297 40.2921 32.4297 42.5895C32.4297 44.8869 34.2921 46.7493 36.5895 46.7493ZM37.0202 57.4403C36.7769 57.6648 36.402 57.6648 36.1588 57.4403C30.0972 51.845 27.05 46.9121 27.05 42.5895C27.05 37.321 31.321 33.05 36.5895 33.05C41.858 33.05 46.129 37.321 46.129 42.5895C46.129 46.9121 43.0818 51.845 37.0202 57.4403Z" fill="#A1FFC5" stroke="black" stroke-width="0.1"/>
<path d="M109.062 123.534C109.37 123.534 109.653 123.593 109.912 123.712C110.68 124.099 111.133 124.833 111.139 125.653V131.296C110.995 132.193 109.968 131.949 109.943 131.296V125.967C109.852 125.663 109.265 125.789 109.251 125.967V138.197C109.102 139.446 107.488 139.079 107.447 138.176V130.687C107.344 130.204 106.665 130.424 106.65 130.708C106.679 133.197 106.671 135.687 106.671 138.176C106.51 139.418 104.904 139.101 104.867 138.197L104.846 125.967C104.752 125.67 104.208 125.784 104.196 125.967V131.296C104.052 132.193 103.025 131.949 103 131.296V125.653C103.015 124.868 103.302 124.083 103.986 123.712C104.21 123.593 104.482 123.534 104.804 123.534L109.062 123.534ZM109.041 120.971C109.041 122.06 108.159 122.943 107.07 122.943C105.981 122.943 105.099 122.06 105.099 120.971C105.099 119.883 105.981 119 107.07 119C108.159 119 109.041 119.883 109.041 120.971Z" fill="#4ECB71"/>
</svg>
