<svg width="9" height="14" viewBox="0 0 9 14" fill="none" xmlns="http://www.w3.org/2000/svg">
<path d="M0.882521 3.679C0.880468 3.72744 0.888345 3.77579 0.905668 3.82107C0.922992 3.86636 0.949395 3.90762 0.983254 3.94232C1.01711 3.97703 1.05771 4.00444 1.10256 4.02287C1.1474 4.0413 1.19554 4.05036 1.24402 4.0495H2.48152C2.68852 4.0495 2.85352 3.88 2.88052 3.6745C3.01552 2.6905 3.69052 1.9735 4.89352 1.9735C5.92252 1.9735 6.86452 2.488 6.86452 3.7255C6.86452 4.678 6.30352 5.116 5.41702 5.782C4.40752 6.5155 3.60802 7.372 3.66502 8.7625L3.66952 9.088C3.6711 9.18641 3.7113 9.28026 3.78146 9.34929C3.85161 9.41833 3.9461 9.45701 4.04452 9.457H5.26102C5.36048 9.457 5.45586 9.41749 5.52619 9.34716C5.59651 9.27684 5.63602 9.18146 5.63602 9.082V8.9245C5.63602 7.8475 6.04552 7.534 7.15102 6.6955C8.06452 6.001 9.01702 5.23 9.01702 3.6115C9.01702 1.345 7.10302 0.25 5.00752 0.25C3.10702 0.25 1.02502 1.135 0.882521 3.679V3.679ZM3.21802 12.3235C3.21802 13.123 3.85552 13.714 4.73302 13.714C5.64652 13.714 6.27502 13.123 6.27502 12.3235C6.27502 11.4955 5.64502 10.9135 4.73152 10.9135C3.85552 10.9135 3.21802 11.4955 3.21802 12.3235Z" fill="white"/>
</svg>
