<svg width="17" height="17" viewBox="0 0 17 17" fill="none" xmlns="http://www.w3.org/2000/svg">
<path d="M8.5 9.20837C9.6736 9.20837 10.625 8.25698 10.625 7.08337C10.625 5.90977 9.6736 4.95837 8.5 4.95837C7.32639 4.95837 6.375 5.90977 6.375 7.08337C6.375 8.25698 7.32639 9.20837 8.5 9.20837Z" stroke="white" stroke-width="2" stroke-linecap="round" stroke-linejoin="round"/>
<path d="M8.49998 1.41669C6.99709 1.41669 5.55575 2.01371 4.49304 3.07642C3.43034 4.13912 2.83331 5.58046 2.83331 7.08335C2.83331 8.42352 3.11806 9.30044 3.89581 10.2709L8.49998 15.5834L13.1041 10.2709C13.8819 9.30044 14.1666 8.42352 14.1666 7.08335C14.1666 5.58046 13.5696 4.13912 12.5069 3.07642C11.4442 2.01371 10.0029 1.41669 8.49998 1.41669V1.41669Z" stroke="white" stroke-width="2" stroke-linecap="round" stroke-linejoin="round"/>
</svg>
