<svg width="14" height="17" viewBox="0 0 14 17" fill="none" xmlns="http://www.w3.org/2000/svg">
<g clip-path="url(#clip0_129_6)">
<path d="M6.5 9.20837C7.6736 9.20837 8.625 8.25698 8.625 7.08337C8.625 5.90977 7.6736 4.95837 6.5 4.95837C5.32639 4.95837 4.375 5.90977 4.375 7.08337C4.375 8.25698 5.32639 9.20837 6.5 9.20837Z" stroke="white" stroke-width="2" stroke-linecap="round" stroke-linejoin="round"/>
<path d="M6.50004 1.41669C4.99715 1.41669 3.55581 2.01371 2.4931 3.07642C1.4304 4.13912 0.833374 5.58046 0.833374 7.08335C0.833374 8.42352 1.11812 9.30044 1.89587 10.2709L6.50004 15.5834L11.1042 10.2709C11.882 9.30044 12.1667 8.42352 12.1667 7.08335C12.1667 5.58046 11.5697 4.13912 10.507 3.07642C9.44427 2.01371 8.00293 1.41669 6.50004 1.41669V1.41669Z" stroke="white" stroke-width="2" stroke-linecap="round" stroke-linejoin="round"/>
</g>
<defs>
<clipPath id="clip0_129_6">
<rect width="14" height="17" fill="white"/>
</clipPath>
</defs>
</svg>
