<svg width="36" height="36" viewBox="0 0 36 36" fill="none" xmlns="http://www.w3.org/2000/svg">
<path d="M32.51 27.83C31.5457 26.9703 30.7015 25.9848 30 24.9C29.2343 23.4025 28.7753 21.7672 28.65 20.09V15.15C28.6567 12.5156 27.7011 9.96947 25.9628 7.98997C24.2245 6.01046 21.8232 4.73385 19.21 4.39999V3.10999C19.21 2.75593 19.0694 2.41637 18.819 2.16601C18.5687 1.91565 18.2291 1.77499 17.875 1.77499C17.521 1.77499 17.1814 1.91565 16.9311 2.16601C16.6807 2.41637 16.54 2.75593 16.54 3.10999V4.41999C13.9503 4.77792 11.578 6.06225 9.86258 8.0351C8.14713 10.008 7.20478 12.5356 7.21005 15.15V20.09C7.0848 21.7672 6.62583 23.4025 5.86005 24.9C5.17093 25.9823 4.34024 26.9677 3.39005 27.83C3.28338 27.9237 3.19789 28.0391 3.13927 28.1684C3.08064 28.2977 3.05023 28.438 3.05005 28.58V29.94C3.05005 30.2052 3.15541 30.4596 3.34294 30.6471C3.53048 30.8346 3.78483 30.94 4.05005 30.94H31.85C32.1153 30.94 32.3696 30.8346 32.5572 30.6471C32.7447 30.4596 32.85 30.2052 32.85 29.94V28.58C32.8499 28.438 32.8195 28.2977 32.7608 28.1684C32.7022 28.0391 32.6167 27.9237 32.51 27.83ZM5.13005 28.94C6.06046 28.0412 6.87965 27.034 7.57005 25.94C8.53466 24.1315 9.09748 22.136 9.22005 20.09V15.15C9.18039 13.978 9.37697 12.8101 9.79809 11.7157C10.2192 10.6213 10.8563 9.62278 11.6713 8.7797C12.4863 7.93661 13.4627 7.26616 14.5422 6.80827C15.6218 6.35037 16.7824 6.1144 17.955 6.1144C19.1277 6.1144 20.2883 6.35037 21.3679 6.80827C22.4474 7.26616 23.4238 7.93661 24.2388 8.7797C25.0538 9.62278 25.6909 10.6213 26.112 11.7157C26.5331 12.8101 26.7297 13.978 26.6901 15.15V20.09C26.8126 22.136 27.3754 24.1315 28.34 25.94C29.0305 27.034 29.8496 28.0412 30.7801 28.94H5.13005Z" fill="#A1FFC5"/>
<path d="M17.9999 34.28C18.6299 34.2655 19.2344 34.0287 19.7065 33.6114C20.1787 33.1942 20.4881 32.6234 20.5799 32H15.3199C15.4144 32.6403 15.7383 33.2245 16.2312 33.6439C16.7242 34.0633 17.3528 34.2894 17.9999 34.28V34.28Z" fill="#A1FFC5"/>
</svg>
