<svg width="131" height="131" viewBox="0 0 131 131" fill="none" xmlns="http://www.w3.org/2000/svg">
<path d="M32.75 103.709C38.7792 103.709 43.6667 98.821 43.6667 92.7919C43.6667 86.7628 38.7792 81.8752 32.75 81.8752C26.7209 81.8752 21.8334 86.7628 21.8334 92.7919C21.8334 98.821 26.7209 103.709 32.75 103.709Z" stroke="white" stroke-width="2.92" stroke-linecap="round" stroke-linejoin="round"/>
<path d="M98.25 103.709C104.279 103.709 109.167 98.821 109.167 92.7919C109.167 86.7628 104.279 81.8752 98.25 81.8752C92.2209 81.8752 87.3334 86.7628 87.3334 92.7919C87.3334 98.821 92.2209 103.709 98.25 103.709Z" stroke="white" stroke-width="2.92" stroke-linecap="round" stroke-linejoin="round"/>
<path d="M87.3334 92.7917H43.6667M21.8334 92.7917H10.9167V32.7501C10.9167 31.3024 11.4918 29.9141 12.5154 28.8905C13.539 27.8668 14.9274 27.2917 16.375 27.2917H92.7917C100.03 27.2917 106.972 31.3173 112.09 38.4827C117.208 45.6482 120.083 55.3666 120.083 65.5001V92.7917H109.167H21.8334Z" stroke="white" stroke-width="2.92" stroke-linecap="round" stroke-linejoin="round"/>
<path d="M87.3334 27.2917L95.5209 65.5001H120.083" stroke="white" stroke-width="2.92" stroke-linecap="round" stroke-linejoin="round"/>
<path d="M10.9167 54.5835H92.7917" stroke="white" stroke-width="2.92" stroke-linecap="round" stroke-linejoin="round"/>
<path d="M38.2083 27.2917V54.5834" stroke="white" stroke-width="2.92" stroke-linecap="round" stroke-linejoin="round"/>
<path d="M65.5 27.2917V54.5834" stroke="white" stroke-width="2.92" stroke-linecap="round" stroke-linejoin="round"/>
</svg>
