<svg width="19" height="16" viewBox="0 0 19 16" fill="none" xmlns="http://www.w3.org/2000/svg">
<g clip-path="url(#clip0_115_76)">
<path d="M3.17498 3.76252C3.17498 3.07628 3.44759 2.41814 3.93284 1.93289C4.41809 1.44764 5.07623 1.17502 5.76248 1.17502C6.44872 1.17502 7.10686 1.44764 7.59211 1.93289C8.07736 2.41814 8.34998 3.07628 8.34998 3.76252C8.34998 4.44877 8.07736 5.10691 7.59211 5.59216C7.10686 6.07741 6.44872 6.35002 5.76248 6.35002C5.07623 6.35002 4.41809 6.07741 3.93284 5.59216C3.44759 5.10691 3.17498 4.44877 3.17498 3.76252V3.76252ZM5.76248 0.0250244C4.77123 0.0250244 3.82058 0.418795 3.11966 1.11971C2.41875 1.82063 2.02498 2.77128 2.02498 3.76252C2.02498 4.75377 2.41875 5.70442 3.11966 6.40534C3.82058 7.10625 4.77123 7.50002 5.76248 7.50002C6.75372 7.50002 7.70437 7.10625 8.40529 6.40534C9.1062 5.70442 9.49998 4.75377 9.49998 3.76252C9.49998 2.77128 9.1062 1.82063 8.40529 1.11971C7.70437 0.418795 6.75372 0.0250244 5.76248 0.0250244V0.0250244ZM12.3025 13.4168C12.9212 13.6698 13.6998 13.825 14.675 13.825C16.8381 13.825 18.0341 13.0568 18.6643 12.1759C18.9931 11.7137 19.1993 11.1755 19.2635 10.6119C19.2692 10.5596 19.2731 10.507 19.275 10.4544V10.375C19.275 10.1485 19.2304 9.92418 19.1437 9.7149C19.057 9.50561 18.9299 9.31545 18.7697 9.15526C18.6096 8.99508 18.4194 8.86802 18.2101 8.78133C18.0008 8.69464 17.7765 8.65002 17.55 8.65002H12.2255C12.5015 8.98352 12.7085 9.37337 12.8292 9.80002H17.55C17.7025 9.80002 17.8487 9.8606 17.9566 9.96844C18.0644 10.0763 18.125 10.2225 18.125 10.375V10.4371L18.1192 10.4946C18.0752 10.8592 17.9408 11.2071 17.7282 11.5066C17.3522 12.0345 16.5357 12.675 14.675 12.675C13.8332 12.675 13.2053 12.5439 12.7349 12.3519C12.6406 12.6739 12.5038 13.0373 12.3025 13.4168V13.4168ZM-0.275024 10.95C-0.275024 10.34 -0.0327038 9.75501 0.39863 9.32368C0.829964 8.89235 1.41498 8.65002 2.02498 8.65002H9.49998C10.11 8.65002 10.695 8.89235 11.1263 9.32368C11.5577 9.75501 11.8 10.34 11.8 10.95V11.0466C11.8 11.0581 11.8 11.0731 11.7977 11.0926C11.7837 11.3203 11.751 11.5465 11.6999 11.7688C11.6022 12.192 11.4078 12.7578 11.0157 13.3259C10.2095 14.492 8.65243 15.55 5.76248 15.55C2.87253 15.55 1.31543 14.492 0.509275 13.3259C0.0847233 12.7075 -0.179997 11.9936 -0.261224 11.2479C-0.268096 11.181 -0.272699 11.1138 -0.275024 11.0466V10.95V10.95ZM0.874976 11.019V11.0397L0.883026 11.1352C0.945338 11.6865 1.14199 12.214 1.45573 12.6716C2.01578 13.4812 3.18993 14.4 5.76248 14.4C8.33503 14.4 9.50918 13.4812 10.0692 12.6716C10.383 12.2141 10.5797 11.6865 10.6419 11.1352C10.6457 11.1035 10.648 11.0716 10.6488 11.0397L10.65 11.0202V10.95C10.65 10.645 10.5288 10.3525 10.3131 10.1369C10.0975 9.92118 9.80497 9.80002 9.49998 9.80002H2.02498C1.71998 9.80002 1.42747 9.92118 1.2118 10.1369C0.996136 10.3525 0.874976 10.645 0.874976 10.95V11.019ZM12.95 4.62502C12.95 4.16753 13.1317 3.72877 13.4552 3.40526C13.7787 3.08176 14.2175 2.90002 14.675 2.90002C15.1325 2.90002 15.5712 3.08176 15.8947 3.40526C16.2182 3.72877 16.4 4.16753 16.4 4.62502C16.4 5.08252 16.2182 5.52128 15.8947 5.84478C15.5712 6.16828 15.1325 6.35002 14.675 6.35002C14.2175 6.35002 13.7787 6.16828 13.4552 5.84478C13.1317 5.52128 12.95 5.08252 12.95 4.62502V4.62502ZM14.675 1.75002C13.9125 1.75002 13.1812 2.05293 12.642 2.59209C12.1029 3.13126 11.8 3.86253 11.8 4.62502C11.8 5.38752 12.1029 6.11879 12.642 6.65796C13.1812 7.19712 13.9125 7.50002 14.675 7.50002C15.4375 7.50002 16.1687 7.19712 16.7079 6.65796C17.2471 6.11879 17.55 5.38752 17.55 4.62502C17.55 3.86253 17.2471 3.13126 16.7079 2.59209C16.1687 2.05293 15.4375 1.75002 14.675 1.75002V1.75002Z" fill="white"/>
</g>
<defs>
<clipPath id="clip0_115_76">
<rect width="19" height="16" fill="white"/>
</clipPath>
</defs>
</svg>
