<svg width="23" height="23" viewBox="0 0 23 23" fill="none" xmlns="http://www.w3.org/2000/svg">
<path d="M5.17498 7.76249C5.17498 7.07625 5.44759 6.41811 5.93284 5.93286C6.41809 5.4476 7.07623 5.17499 7.76248 5.17499C8.44872 5.17499 9.10686 5.4476 9.59211 5.93286C10.0774 6.41811 10.35 7.07625 10.35 7.76249C10.35 8.44874 10.0774 9.10688 9.59211 9.59213C9.10686 10.0774 8.44872 10.35 7.76248 10.35C7.07623 10.35 6.41809 10.0774 5.93284 9.59213C5.44759 9.10688 5.17498 8.44874 5.17498 7.76249V7.76249ZM7.76248 4.02499C6.77123 4.02499 5.82058 4.41876 5.11966 5.11968C4.41875 5.8206 4.02498 6.77125 4.02498 7.76249C4.02498 8.75374 4.41875 9.70439 5.11966 10.4053C5.82058 11.1062 6.77123 11.5 7.76248 11.5C8.75372 11.5 9.70437 11.1062 10.4053 10.4053C11.1062 9.70439 11.5 8.75374 11.5 7.76249C11.5 6.77125 11.1062 5.8206 10.4053 5.11968C9.70437 4.41876 8.75372 4.02499 7.76248 4.02499V4.02499ZM14.3025 17.4167C14.9212 17.6697 15.6998 17.825 16.675 17.825C18.8381 17.825 20.0341 17.0568 20.6643 16.1759C20.9931 15.7136 21.1993 15.1755 21.2635 14.6119C21.2692 14.5595 21.2731 14.507 21.275 14.4543V14.375C21.275 14.1485 21.2304 13.9242 21.1437 13.7149C21.057 13.5056 20.9299 13.3154 20.7697 13.1552C20.6096 12.9951 20.4194 12.868 20.2101 12.7813C20.0008 12.6946 19.7765 12.65 19.55 12.65H14.2255C14.5015 12.9835 14.7085 13.3733 14.8292 13.8H19.55C19.7025 13.8 19.8487 13.8606 19.9566 13.9684C20.0644 14.0762 20.125 14.2225 20.125 14.375V14.4371L20.1192 14.4946C20.0752 14.8592 19.9408 15.2071 19.7282 15.5066C19.3522 16.0344 18.5357 16.675 16.675 16.675C15.8332 16.675 15.2053 16.5439 14.7349 16.3518C14.6406 16.6738 14.5038 17.0372 14.3025 17.4167V17.4167ZM1.72498 14.95C1.72498 14.34 1.9673 13.755 2.39863 13.3236C2.82996 12.8923 3.41498 12.65 4.02498 12.65H11.5C12.11 12.65 12.695 12.8923 13.1263 13.3236C13.5577 13.755 13.8 14.34 13.8 14.95V15.0466C13.8 15.0581 13.8 15.073 13.7977 15.0926C13.7837 15.3203 13.751 15.5465 13.6999 15.7688C13.6022 16.192 13.4078 16.7578 13.0157 17.3259C12.2095 18.492 10.6524 19.55 7.76248 19.55C4.87253 19.55 3.31543 18.492 2.50928 17.3259C2.08472 16.7075 1.82 15.9935 1.73878 15.2478C1.7319 15.1809 1.7273 15.1138 1.72498 15.0466V14.95V14.95ZM2.87498 15.019V15.0397L2.88303 15.1351C2.94534 15.6864 3.14199 16.214 3.45573 16.6715C4.01578 17.4811 5.18993 18.4 7.76248 18.4C10.335 18.4 11.5092 17.4811 12.0692 16.6715C12.383 16.214 12.5797 15.6864 12.6419 15.1351C12.6457 15.1035 12.648 15.0716 12.6488 15.0397L12.65 15.0201V14.95C12.65 14.645 12.5288 14.3525 12.3131 14.1368C12.0975 13.9212 11.805 13.8 11.5 13.8H4.02498C3.71998 13.8 3.42747 13.9212 3.2118 14.1368C2.99614 14.3525 2.87498 14.645 2.87498 14.95V15.019ZM14.95 8.62499C14.95 8.1675 15.1317 7.72873 15.4552 7.40523C15.7787 7.08173 16.2175 6.89999 16.675 6.89999C17.1325 6.89999 17.5712 7.08173 17.8947 7.40523C18.2182 7.72873 18.4 8.1675 18.4 8.62499C18.4 9.08249 18.2182 9.52125 17.8947 9.84475C17.5712 10.1683 17.1325 10.35 16.675 10.35C16.2175 10.35 15.7787 10.1683 15.4552 9.84475C15.1317 9.52125 14.95 9.08249 14.95 8.62499V8.62499ZM16.675 5.74999C15.9125 5.74999 15.1812 6.05289 14.642 6.59206C14.1029 7.13123 13.8 7.8625 13.8 8.62499C13.8 9.38749 14.1029 10.1188 14.642 10.6579C15.1812 11.1971 15.9125 11.5 16.675 11.5C17.4375 11.5 18.1687 11.1971 18.7079 10.6579C19.2471 10.1188 19.55 9.38749 19.55 8.62499C19.55 7.8625 19.2471 7.13123 18.7079 6.59206C18.1687 6.05289 17.4375 5.74999 16.675 5.74999V5.74999Z" fill="white"/>
</svg>
