<svg width="52" height="52" viewBox="0 0 52 52" fill="none" xmlns="http://www.w3.org/2000/svg">
<path d="M20.2333 18.2333L25.6104 9.352L22.0458 3.43117C21.5625 2.62561 20.8681 2.22284 19.9626 2.22284C19.0556 2.22284 18.3604 2.62561 17.877 3.43117L11.9562 13.2791L20.2333 18.2333ZM43.6145 34.6666L38.2375 25.7249L46.6354 20.8916L50.502 27.3562C50.9451 28.0409 51.1771 28.8166 51.198 29.6834C51.2174 30.5486 51.0458 31.3235 50.6833 32.0083C50.2805 32.8138 49.686 33.4583 48.8998 33.9416C48.1152 34.4249 47.2597 34.6666 46.3333 34.6666H43.6145ZM36.6666 51.5833L27 41.9166L36.6666 32.2499V37.0833H48.1458L44.6416 44.0916C44.1986 44.8971 43.5944 45.5416 42.8291 46.0249C42.0638 46.5083 41.218 46.7499 40.2916 46.7499H36.6666V51.5833ZM13.2854 46.7499C12.4798 46.7499 11.7443 46.5389 11.079 46.1168C10.4152 45.693 9.92218 45.1388 9.59996 44.4541C9.27774 43.8096 9.1271 43.1346 9.14804 42.4289C9.16738 41.7249 9.35829 41.0708 9.72079 40.4666L11.775 37.0833H22.1666V46.7499H13.2854ZM7.30413 39.8624L3.37704 32.0083C3.01454 31.2833 2.84376 30.5083 2.86471 29.6834C2.88404 28.8569 3.11524 28.0812 3.55829 27.3562L4.52496 25.7249L0.416626 23.2478L13.6479 19.9249L16.9708 33.2166L12.802 30.6791L7.30413 39.8624ZM39.9291 19.1999L26.6979 15.877L30.8666 13.3999L23.3145 0.833252H31.8333C32.6791 0.833252 33.475 1.04431 34.221 1.46642C34.9653 1.89014 35.559 2.4645 36.002 3.1895L39.1437 8.44575L43.252 5.90825L39.9291 19.1999Z" fill="black"/>
</svg>
